<svg width="24" height="24" viewBox="0 0 24 24" fill="none" xmlns="http://www.w3.org/2000/svg">
<path d="M21.5 11V21C21.5 21.2 21.38 21.39 21.19 21.46C21.13 21.49 21.06 21.5 21 21.5C20.87 21.5 20.74 21.4501 20.64 21.3501L18.83 19.5H10C8.07 19.5 6.5 17.93 6.5 16H14C16.76 16 19 13.76 19 11V7.6499C20.44 8.0799 21.5 9.42 21.5 11ZM17.5 11V6C17.5 4.07 15.93 2.5 14 2.5H6C4.07 2.5 2.5 4.07 2.5 6V16C2.5 16.2 2.62 16.39 2.81 16.46C2.87 16.49 2.94 16.5 3 16.5C3.13 16.5 3.25999 16.4501 3.35999 16.3501L5.17001 14.5H14C15.93 14.5 17.5 12.93 17.5 11Z" fill="#41416E"/>
</svg>
