<svg width="24" height="24" viewBox="0 0 24 24" fill="none" xmlns="http://www.w3.org/2000/svg">
<path fill-rule="evenodd" clip-rule="evenodd" d="M19.75 13.1705C19.65 13.0605 19.51 13.0005 19.37 13.0005H4.63C4.49 13.0005 4.35 13.0605 4.25 13.1705C4.16 13.2805 4.12 13.4206 4.13 13.5706L4.84 18.9505C5.07 20.6905 6.56 22.0005 8.31 22.0005H15.71C17.47 22.0005 18.97 20.6905 19.19 18.9405L19.87 13.5606C19.88 13.4206 19.84 13.2805 19.75 13.1705ZM11 18.0005C11 18.5505 10.55 19.0005 10 19.0005C9.45 19.0005 9 18.5505 9 18.0005V16.0005C9 15.4505 9.45 15.0005 10 15.0005C10.55 15.0005 11 15.4505 11 16.0005V18.0005ZM15 18.0005C15 18.5505 14.55 19.0005 14 19.0005C13.45 19.0005 13 18.5505 13 18.0005V16.0005C13 15.4505 13.45 15.0005 14 15.0005C14.55 15.0005 15 15.4505 15 16.0005V18.0005ZM22 9.25053C22 10.4935 20.993 11.5005 19.75 11.5005H4.25C3.007 11.5005 2 10.4935 2 9.25053C2 8.00753 3.007 7.00053 4.25 7.00053H6.43399L9.14301 2.48564C9.42701 2.01064 10.04 1.85762 10.515 2.14262C10.989 2.42662 11.142 3.04045 10.858 3.51445L8.767 6.99956H15.235L13.144 3.51445C12.86 3.04045 13.013 2.42662 13.487 2.14262C13.961 1.85862 14.575 2.01164 14.859 2.48564L17.568 7.00053H19.752C20.993 7.00053 22 8.00753 22 9.25053Z" fill="#41416E"/>
</svg>
