<svg width="24" height="24" viewBox="0 0 24 24" fill="none" xmlns="http://www.w3.org/2000/svg">
<path d="M16.25 10V14C16.25 16.481 14.231 18.5 11.75 18.5H6.75C4.269 18.5 2.25 16.481 2.25 14V10C2.25 7.519 4.269 5.5 6.75 5.5H11.75C14.231 5.5 16.25 7.519 16.25 10ZM20.849 7.73901C20.297 7.44401 19.63 7.47697 19.113 7.82397L17.973 8.58398C17.834 8.67698 17.75 8.833 17.75 9V15C17.75 15.167 17.833 15.323 17.973 15.416L19.112 16.175C19.396 16.365 19.723 16.4609 20.051 16.4609C20.324 16.4609 20.598 16.395 20.849 16.261C21.405 15.965 21.75 15.39 21.75 14.76V9.23999C21.75 8.60999 21.405 8.03501 20.849 7.73901Z" fill="#41416E"/>
</svg>
